<svg id="Layer_1" data-name="Layer 1" xmlns="http://www.w3.org/2000/svg" viewBox="0 0 512 512"><defs><style>.cls-1{fill:#fbb040;}.cls-2{fill:#f7941d;}</style></defs><circle class="cls-1" cx="256.28" cy="255.44" r="175"/><path class="cls-2" d="M490.72,256.1c0-16.45,5.88-30.62,15.28-39.52-11.66-5.57-21.6-17.22-26.67-32.83l-.06-.19c-5.09-15.65-3.88-30.95,2.32-42.31-12.82-1.68-25.87-9.69-35.52-23l-.12-.15c-9.67-13.32-13.25-28.24-10.87-41-12.7,2.35-27.59-1.23-40.88-10.88l-.15-.11c-13.32-9.68-21.33-22.77-23-35.61-11.36,6.18-26.63,7.37-42.25,2.3l-.18-.06c-15.65-5.09-27.31-15-32.87-26.75-8.9,9.37-23.05,15.23-39.47,15.23h-.19c-16.45,0-30.62-5.88-39.52-15.28C211,17.66,199.36,27.6,183.74,32.67l-.18.06c-15.65,5.09-30.95,3.88-42.32-2.32-1.68,12.81-9.68,25.87-23,35.52l-.16.12C104.8,75.72,89.88,79.29,77.16,76.92c2.35,12.7-1.23,27.59-10.88,40.88l-.12.15c-9.67,13.32-22.76,21.33-35.6,23,6.18,11.36,7.37,26.63,2.29,42.25l-.05.18c-5.09,15.65-15,27.31-26.75,32.86,9.37,8.91,15.23,23.06,15.23,39.48v.19c0,16.45-5.88,30.62-15.28,39.52,11.66,5.58,21.6,17.22,26.67,32.84l.06.18c5.09,15.65,3.88,30.95-2.32,42.32,12.81,1.68,25.86,9.68,35.52,23l.11.15c9.68,13.32,13.25,28.24,10.87,41,12.71-2.35,27.6,1.23,40.88,10.88l.16.12c13.32,9.67,21.33,22.76,23,35.6,11.36-6.18,26.63-7.37,42.25-2.29l.18.05c15.65,5.09,27.31,15.05,32.86,26.74,8.9-9.36,23.05-15.22,39.48-15.22h.19c16.45,0,30.62,5.88,39.52,15.28,5.57-11.66,17.22-21.6,32.83-26.67l.19-.06c15.65-5.09,30.95-3.88,42.31,2.32,1.68-12.82,9.69-25.86,23-35.52l.15-.11c13.32-9.68,28.24-13.25,41-10.87-2.35-12.71,1.23-27.6,10.88-40.88l.11-.16c9.68-13.32,22.76-21.32,35.6-23-6.17-11.36-7.36-26.63-2.29-42.26l.06-.18c5.09-15.65,15.05-27.31,26.74-32.87-9.36-8.89-15.22-23-15.22-39.47ZM275,463.89c-137.69,11.93-250.68-109.58-224-249.61A206.83,206.83,0,0,1,215.13,50.09c140-26.66,261.54,86.33,249.61,224A208.58,208.58,0,0,1,275,463.89Z"/></svg>