<?xml version="1.0" encoding="UTF-8" standalone="no"?>
<!DOCTYPE svg PUBLIC "-//W3C//DTD SVG 1.1//EN" "http://www.w3.org/Graphics/SVG/1.1/DTD/svg11.dtd">
<svg width="100%" height="100%" viewBox="0 0 2134 2134" version="1.1" xmlns="http://www.w3.org/2000/svg" xmlns:xlink="http://www.w3.org/1999/xlink" xml:space="preserve" xmlns:serif="http://www.serif.com/" style="fill-rule:evenodd;clip-rule:evenodd;stroke-linejoin:round;stroke-miterlimit:2;">
    <g id="Page-1" serif:id="Page 1" transform="matrix(4.166667,0,0,4.166667,0,0)">
        <rect x="0" y="0" width="512" height="512" style="fill:none;"/>
        <g id="Layer-1" serif:id="Layer 1">
            <g transform="matrix(0,-1,-1,0,256.2842,80.4351)">
                <path d="M-175,-175C-271.65,-175 -350,-96.649 -350,0C-350,96.65 -271.65,175 -175,175C-78.35,175 0,96.65 0,0C0,-96.649 -78.35,-175 -175,-175" style="fill-opacity:0.25;fill-rule:nonzero;"/>
            </g>
            <g transform="matrix(1,0,0,1,274.9619,48.1096)">
                <path d="M0,415.78C-137.697,427.716 -250.682,306.201 -224.02,166.174C-208.204,83.111 -142.893,17.8 -59.83,1.984C80.198,-24.678 201.712,88.306 189.777,226.003C181.026,326.963 100.96,407.029 0,415.78M215.762,207.99C215.762,191.539 221.635,177.368 231.038,168.473C219.375,162.902 209.436,151.252 204.366,135.639L204.304,135.453C199.221,119.799 200.43,104.502 206.626,93.14C193.809,91.458 180.757,83.448 171.106,70.164L170.989,70.006C161.318,56.694 157.739,41.767 160.123,29.046C147.415,31.402 132.53,27.823 119.238,18.166L119.088,18.056C105.769,8.377 97.759,-4.708 96.097,-17.546C84.735,-11.371 69.473,-10.176 53.853,-15.252L53.667,-15.314C38.02,-20.404 26.356,-30.364 20.799,-42.055C11.897,-32.685 -2.253,-26.833 -18.67,-26.833L-18.862,-26.833C-35.313,-26.833 -49.484,-32.706 -58.387,-42.11C-63.957,-30.446 -75.6,-20.507 -91.22,-15.437L-91.399,-15.376C-107.053,-10.293 -122.351,-11.501 -133.719,-17.698C-135.401,-4.887 -143.404,8.171 -156.695,17.822L-156.853,17.939C-170.166,27.611 -185.085,31.182 -197.806,28.806C-195.45,41.513 -199.036,56.398 -208.687,69.69L-208.803,69.841C-218.475,83.16 -231.561,91.169 -244.398,92.831C-238.223,104.193 -237.035,119.463 -242.111,135.076L-242.166,135.261C-247.256,150.909 -257.216,162.572 -268.907,168.122C-259.538,177.031 -253.686,191.181 -253.686,207.598L-253.686,207.791C-253.686,224.242 -259.558,238.413 -268.962,247.315C-257.305,252.885 -247.359,264.529 -242.29,280.148L-242.228,280.327C-237.145,295.981 -238.354,311.279 -244.55,322.647C-231.739,324.33 -218.688,332.332 -209.03,345.624L-208.92,345.775C-199.242,359.087 -195.67,374.013 -198.053,386.734C-185.346,384.379 -170.454,387.965 -157.169,397.615L-157.011,397.732C-143.692,407.403 -135.683,420.489 -134.021,433.327C-122.667,427.152 -107.396,425.964 -91.776,431.04L-91.591,431.094C-75.943,436.184 -64.28,446.144 -58.73,457.836C-49.828,448.467 -35.678,442.614 -19.254,442.614L-19.062,442.614C-2.61,442.614 11.561,448.487 20.456,457.89C26.026,446.234 37.677,436.288 53.289,431.218L53.475,431.156C69.129,426.073 84.427,427.282 95.788,433.478C97.471,420.661 105.479,407.616 118.765,397.959L118.923,397.848C132.241,388.171 147.154,384.598 159.882,386.982C157.526,374.274 161.104,359.383 170.763,346.097L170.873,345.94C180.551,332.621 193.63,324.618 206.468,322.956C200.3,311.601 199.104,296.332 204.181,280.705L204.242,280.519C209.332,264.872 219.292,253.209 230.983,247.651C221.614,238.757 215.762,224.606 215.762,208.182L215.762,207.99Z" style="fill-opacity:0.25;fill-rule:nonzero;"/>
            </g>
        </g>
    </g>
</svg>
